<?xml version="1.0" standalone="no"?>
<!DOCTYPE svg PUBLIC "-//W3C//DTD SVG 20010904//EN"
 "http://www.w3.org/TR/2001/REC-SVG-20010904/DTD/svg10.dtd">
<svg version="1.0" xmlns="http://www.w3.org/2000/svg"
 width="365.000000pt" height="365.000000pt" viewBox="0 0 365.000000 365.000000"
 preserveAspectRatio="xMidYMid meet">
<metadata>
Created by potrace 1.11, written by Peter Selinger 2001-2013
</metadata>
<g transform="translate(0.000000,365.000000) scale(0.100000,-0.100000)"
fill="#000000" stroke="none">
<path d="M1680 3634 c-319 -68 -558 -338 -635 -719 -13 -62 -12 -272 1 -347
16 -94 53 -208 95 -289 29 -59 30 -62 12 -82 -133 -154 -339 -194 -525 -102
-222 109 -308 396 -182 611 41 70 25 132 -41 154 -44 15 -70 1 -124 -65 -58
-70 -95 -137 -127 -230 -36 -109 -43 -283 -14 -395 44 -168 147 -319 284 -414
92 -63 162 -94 279 -120 22 -5 26 -10 18 -24 -16 -30 -59 -165 -71 -222 -33
-160 -33 -320 2 -490 67 -324 277 -616 563 -782 74 -43 264 -118 299 -118 100
0 121 101 33 157 -89 58 -160 113 -241 188 -30 28 -136 157 -136 167 0 4 -11
23 -24 43 -31 45 -81 165 -101 241 -23 87 -29 138 -29 249 1 359 200 700 494
841 157 76 350 90 515 37 337 -108 586 -476 588 -868 1 -104 -2 -131 -27 -250
-7 -32 -39 -115 -44 -115 -4 0 -35 26 -68 58 -171 160 -188 172 -236 176 -72
6 -136 -43 -145 -112 -11 -85 -16 -79 291 -354 17 -16 18 -19 3 -41 -27 -42
-169 -166 -257 -225 -95 -65 -112 -88 -99 -136 17 -61 56 -69 160 -35 134 44
266 115 370 200 42 35 47 37 61 21 8 -9 57 -55 108 -102 51 -47 99 -91 106
-98 26 -25 86 -44 123 -37 69 13 110 63 111 135 0 60 -13 77 -152 203 -64 59
-119 111 -123 116 -3 5 6 27 21 48 88 129 165 346 180 510 18 199 -1 357 -66
534 l-29 79 27 6 c165 36 308 121 412 245 184 220 220 533 90 790 -30 59 -98
151 -129 174 -35 26 -88 23 -116 -8 -35 -37 -34 -75 2 -143 68 -127 72 -271
12 -398 -27 -57 -118 -157 -172 -189 -180 -106 -427 -67 -547 85 l-21 28 32
67 c71 152 99 263 103 425 6 228 -58 440 -187 618 -38 53 -165 180 -179 180
-4 0 -13 6 -21 14 -22 23 -127 72 -202 95 -88 28 -234 34 -325 15z m-102 -871
c50 -37 67 -71 66 -128 -2 -126 -141 -196 -240 -120 -64 49 -79 117 -43 191
37 78 149 107 217 57z m616 13 c77 -32 113 -132 76 -206 -23 -45 -46 -65 -93
-80 -49 -16 -98 -6 -138 27 -59 50 -73 117 -39 188 35 72 118 103 194 71z"/>
</g>
</svg>
