<?xml version="1.0" encoding="UTF-8"?>
<svg xmlns="http://www.w3.org/2000/svg" version="1.1" width="846" height="365">
  <path d="M0 0 C4.34553505 3.32447384 8.1808441 7.09266734 12 11 C12.80050781 11.77988281 13.60101563 12.55976563 14.42578125 13.36328125 C32.01754548 31.44117368 38.58612796 57.35171496 38.41943359 81.98193359 C37.92411652 99.50976672 32.99829496 115.47855632 25 131 C31.55270931 139.62198593 40.22644022 145.17397292 51 147 C65.19477442 148.17744673 75.51731149 144.76822819 87.125 136.875 C95.59876709 129.39259285 100.18982704 117.86329221 101.1953125 106.86328125 C101.6137221 98.20220256 99.32770017 89.45221599 94.75 82.0625 C92.77832886 78.61207551 92.40598426 76.90353203 93 73 C94.66762322 69.50593231 95.74006022 68.17329319 99 66 C102.30969489 65.49081617 104.77357593 65.31081479 107.765625 66.9921875 C119.73962304 76.53902378 127.16435515 93.08728194 129 108 C130.53046824 129.03253241 127.01859932 147.7460905 113.75 164.8125 C102.15908909 178.17151597 86.7011164 187.79826015 69 190 C69.39832031 191.06476563 69.79664063 192.12953125 70.20703125 193.2265625 C73.58125761 202.40598951 76.34399203 211.33583411 78 221 C78.13148438 221.76054687 78.26296875 222.52109375 78.3984375 223.3046875 C82.0458674 249.42817195 76.38430514 280.71921083 60.66015625 302.296875 C58.79782785 304.78215857 58.79782785 304.78215857 59.046875 307.1875 C60.18604553 309.3537915 61.34277045 310.46139464 63.25 312 C67.17389072 315.28412593 70.98202914 318.66448878 74.75 322.125 C75.30461914 322.62773437 75.85923828 323.13046875 76.43066406 323.6484375 C81.77199503 328.55407077 85.57995732 332.31272165 86.1015625 339.7890625 C85.89714172 344.23914569 83.82704313 347.04373138 81 350.3125 C78.06517459 352.78875894 75.41135059 353.1903011 71.6875 353.3125 C70.94886719 353.34988281 70.21023438 353.38726562 69.44921875 353.42578125 C63.66822512 352.42079193 59.3885589 347.68820448 55.25 343.8125 C54.20872656 342.84332735 53.16705271 341.87458474 52.125 340.90625 C51.60679687 340.42285156 51.08859375 339.93945312 50.5546875 339.44140625 C48.14305949 337.20549988 45.69720506 335.00942272 43.25 332.8125 C42.43015625 332.07644531 41.6103125 331.34039062 40.765625 330.58203125 C40.18296875 330.05996094 39.6003125 329.53789062 39 329 C36.26178008 330.80146048 33.54321336 332.60042965 30.90234375 334.54296875 C18.72587319 343.4263037 1.60327816 354.40825331 -14 353.484375 C-16 353 -16 353 -18.625 350.875 C-20.24087358 347.49635524 -20.61623195 345.69739168 -20 342 C-17.39811138 338.22785554 -14.80412156 335.99571573 -10.875 333.6875 C-0.23665129 327.12131391 8.34723064 318.92038078 17 310 C16.27425781 309.27554687 15.54851562 308.55109375 14.80078125 307.8046875 C13.06369958 306.06518313 11.33104865 304.32122718 9.60546875 302.5703125 C5.7793082 298.70088358 1.96394217 294.89645679 -2.1875 291.375 C-13.04522502 281.95173052 -13.04522502 281.95173052 -14.125 275.9375 C-13.94372982 270.22748931 -12.67101685 266.58746601 -8.5 262.625 C-4.28119893 259.88277931 -0.95904225 259.66379375 4 260 C9.53545791 262.17826905 13.19929566 265.72664175 17.375 269.8125 C22.32819188 274.6269614 27.37693041 278.97862519 33 283 C33.64829562 280.29223506 34.29370602 277.58383555 34.9375 274.875 C35.21110352 273.73417969 35.21110352 273.73417969 35.49023438 272.5703125 C41.66885554 246.50776504 37.63367584 219.06991562 23.53320312 196.18945312 C19.91716653 190.59334974 15.67284475 185.74232943 11 181 C10.45085937 180.37867188 9.90171875 179.75734375 9.3359375 179.1171875 C-1.62499209 167.07636337 -19.51449352 159.44733475 -35.7265625 158.6640625 C-57.67190371 158.25557056 -75.88849097 164.90195686 -92 180 C-109.03720473 196.57756791 -118.85554827 221.51151589 -119.29272461 245.14648438 C-119.47475323 273.71374097 -110.29237474 297.3338496 -90.67529297 318.31738281 C-83.22315732 325.80209848 -74.27140357 331.71034779 -65.328125 337.24609375 C-62.90462215 339.07185345 -61.9424434 340.14478687 -61 343 C-61.32191781 349.11643836 -61.32191781 349.11643836 -63.2890625 351.6796875 C-66.07959427 353.83311156 -68.42871367 353.58576206 -71.86328125 353.48046875 C-78.5770722 352.45207985 -84.80127972 349.68232085 -91 347 C-92.05703125 346.54367187 -93.1140625 346.08734375 -94.203125 345.6171875 C-121.52110633 332.8347096 -142.75328392 308.16519626 -153 280 C-163.409114 250.21685445 -161.79923642 221.26140407 -151 192 C-150.67 191.34 -150.34 190.68 -150 190 C-151.17175781 189.8865625 -152.34351563 189.773125 -153.55078125 189.65625 C-168.76877124 187.72932931 -184.45534907 177.77892239 -194 166 C-207.83729556 146.87128516 -212.78642358 127.26434148 -209.6953125 103.67480469 C-207.13168399 90.31385304 -199.86664983 77.218533 -189.9375 67.9375 C-187 66 -187 66 -184 65.375 C-179.83207066 66.24331861 -177.88876785 67.90969021 -175 71 C-173.16347076 76.59121124 -174.9308096 80.06683604 -177.375 85.0625 C-183.00903337 96.91377722 -183.72961098 108.2421302 -179.38671875 120.859375 C-174.60336289 131.69266545 -166.67182518 139.82153876 -155.75 144.375 C-145.06389127 148.39102126 -133.50906853 148.3562393 -122.83203125 144.33984375 C-116.94348092 141.55395028 -110.24982913 137.8650115 -107 132 C-107.25689358 128.27205601 -108.67683863 125.32196242 -110.3125 122 C-122.21986747 96.39571851 -122.13843501 67.3552945 -112.625 41.0625 C-108.64094535 31.40602607 -103.70787471 22.99785062 -97 15 C-96.41734375 14.26007812 -95.8346875 13.52015625 -95.234375 12.7578125 C-72.12888389 -15.29885528 -29.60230991 -20.34018661 0 0 Z M-83.8125 79.125 C-86.69359686 82.91158445 -87.81218225 86.24739428 -88 91 C-86.50869047 96.26344538 -84.15037306 99.4721829 -80 103 C-74.63049295 104.78983568 -69.80264667 104.88431724 -64.6875 102.375 C-61.16067505 99.25827098 -58.40980439 96.60617171 -57.65234375 91.7890625 C-57.47133568 87.05137296 -57.87814002 83.74623197 -61 80 C-64.08046094 76.91953906 -66.23892839 75.22140265 -70.4375 74 C-75.9646211 74 -79.4578355 75.83480905 -83.8125 79.125 Z M-19.8125 79.125 C-22.69359686 82.91158445 -23.81218225 86.24739428 -24 91 C-22.50869047 96.26344538 -20.15037306 99.4721829 -16 103 C-10.63049295 104.78983568 -5.80264667 104.88431724 -0.6875 102.375 C2.83932495 99.25827098 5.59019561 96.60617171 6.34765625 91.7890625 C6.52866432 87.05137296 6.12185998 83.74623197 3 80 C-0.08046094 76.91953906 -2.23892839 75.22140265 -6.4375 74 C-11.9646211 74 -15.4578355 75.83480905 -19.8125 79.125 Z " fill="#1E9EF3" transform="translate(210,12)"></path>
  <path d="M0 0 C16.36191272 15.53607485 24.09460091 34.80712539 24.8046875 57.26953125 C24.61518631 62.59451471 23.05166972 66.26653877 19.1875 69.9375 C15.9377443 72.04984121 13.47820483 72.68771661 9.6822052 72.68275452 C8.46438103 72.68481651 8.46438103 72.68481651 7.22195435 72.68692017 C6.33506927 72.68332489 5.4481842 72.67972961 4.53442383 72.67602539 C3.12925255 72.67624443 3.12925255 72.67624443 1.69569397 72.6764679 C-1.40471705 72.6757705 -4.50506821 72.66798617 -7.60546875 72.66015625 C-9.75352445 72.65829146 -11.90158057 72.65686784 -14.04963684 72.65586853 C-19.70658541 72.6520482 -25.36350835 72.64222201 -31.02044678 72.63116455 C-36.79162245 72.62094005 -42.56280226 72.61636868 -48.33398438 72.61132812 C-59.66016752 72.60059934 -70.98633163 72.58352869 -82.3125 72.5625 C-81.7072658 74.45487442 -81.09524634 76.34507939 -80.48046875 78.234375 C-79.97036255 79.8136377 -79.97036255 79.8136377 -79.44995117 81.42480469 C-75.85866182 91.33149082 -69.72011893 99.24736125 -60.27734375 104.1328125 C-46.6409777 110.04697374 -33.51700197 109.95772811 -19.68359375 104.53125 C-13.93574175 101.86870823 -9.2476572 98.3385893 -4.44140625 94.234375 C-0.20845468 90.91014881 4.5285317 90.94518755 9.6875 91.5625 C13.80043161 93.46663501 15.33666002 94.9626768 17.625 98.875 C19.15155761 104.1730529 18.66107171 107.57302737 16.25 112.5 C4.2081237 126.89151071 -13.67560541 134.2469508 -31.97045898 136.16357422 C-51.50776804 137.80334837 -71.23708795 133.39771931 -86.67578125 120.94921875 C-101.17043249 108.54043183 -111.58186957 90.08490761 -113.21875 70.8515625 C-113.26515625 69.71847656 -113.26515625 69.71847656 -113.3125 68.5625 C-113.3640625 67.41523438 -113.415625 66.26796875 -113.46875 65.0859375 C-114.14278538 42.66172726 -107.75209305 23.1086195 -93.12109375 6 C-69.14111854 -19.39560881 -26.72649619 -23.42053616 0 0 Z M-73 25.25 C-78.96497474 32.38885993 -81.1660497 39.39089763 -82.3125 48.5625 C-56.9025 48.5625 -31.4925 48.5625 -5.3125 48.5625 C-8.86767312 34.34180753 -12.36531232 23.76215851 -25.015625 15.88671875 C-25.77359375 15.44972656 -26.5315625 15.01273438 -27.3125 14.5625 C-27.90546875 14.21832031 -28.4984375 13.87414062 -29.109375 13.51953125 C-44.78840848 6.13096016 -61.98689624 13.64351781 -73 25.25 Z " fill="#22AEFC" transform="translate(682.3125,228.4375)"></path>
  <path d="M0 0 C1.07563705 -0.00554901 2.15127411 -0.01109802 3.25950623 -0.01681519 C6.80155507 -0.02858987 10.34231871 -0.00435962 13.88427734 0.02148438 C16.35094138 0.02319586 18.81760724 0.02312941 21.28427124 0.0213623 C26.44734151 0.02301424 31.60997689 0.04169249 36.77294922 0.07324219 C43.39193492 0.11296038 50.0103523 0.11728168 56.62943459 0.10977936 C61.72007456 0.10671088 66.81058668 0.11882527 71.90119553 0.13591003 C74.34204685 0.14294172 76.78291265 0.14606436 79.22377396 0.1452179 C82.63252247 0.14701458 86.04058822 0.16838528 89.44921875 0.1953125 C90.96265617 0.1909166 90.96265617 0.1909166 92.50666809 0.18643188 C97.49694534 0.24728596 101.07285128 0.30517168 105.09521484 3.61523438 C108.15808574 7.39676771 109.44417019 11.39504684 109.15771484 16.24023438 C108.35928535 20.95748621 106.53236909 23.33794776 103.09521484 26.61523438 C99.23547608 29.34012722 94.90888661 28.8816591 90.37939453 28.84228516 C89.06178635 28.84272324 89.06178635 28.84272324 87.71755981 28.84317017 C84.8173023 28.84177805 81.91730243 28.82622232 79.01708984 28.81054688 C77.00498597 28.80681633 74.99288027 28.80396955 72.98077393 28.80197144 C67.68712338 28.79433828 62.39358274 28.77469244 57.09997559 28.75256348 C50.74733755 28.72849955 44.39466276 28.71932256 38.04199219 28.70765686 C28.39299 28.68826793 18.74422889 28.64994306 9.09521484 28.61523438 C9.09521484 47.42523438 9.09521484 66.23523438 9.09521484 85.61523438 C13.92275391 85.545625 18.75029297 85.47601563 23.72412109 85.40429688 C26.79122707 85.373622 29.85814267 85.34473799 32.92529297 85.32226562 C37.78873198 85.28646277 42.65149018 85.24421197 47.5144043 85.16259766 C51.43724436 85.0971762 55.359354 85.06148114 59.28269768 85.04597092 C60.7758426 85.03492495 62.26894964 85.01335372 63.76178169 84.98085403 C76.92142366 84.70588013 76.92142366 84.70588013 81.47387695 88.50732422 C84.45391838 91.68647843 86.02967661 94.26459647 86.15380859 98.71679688 C85.84873452 104.60177416 84.40001476 107.60394354 80.09521484 111.61523438 C76.14080442 113.6223857 72.87260759 113.85912498 68.46899414 113.84228516 C67.50229546 113.84272324 67.50229546 113.84272324 66.5160675 113.84317017 C64.40038263 113.84178442 62.28505643 113.82625944 60.16943359 113.81054688 C58.69684542 113.80681405 57.22425476 113.80396835 55.75166321 113.80197144 C51.88663812 113.7943562 48.02176471 113.77472601 44.15679932 113.75256348 C40.20855765 113.73205946 36.26029134 113.72296 32.31201172 113.71289062 C24.57301048 113.69147797 16.83413396 113.65736771 9.09521484 113.61523438 C9.10409729 114.4891835 9.11297974 115.36313263 9.12213135 116.26356506 C9.20242303 124.51708709 9.26325319 132.77047712 9.30246353 141.02430058 C9.32330005 145.26726565 9.35154501 149.50990684 9.39697266 153.75268555 C9.44057193 157.85054628 9.46438154 161.94809633 9.47472382 166.04617119 C9.48209004 167.606235 9.49647464 169.16628263 9.51813507 170.72621346 C9.54735799 172.9188364 9.55116323 175.11019083 9.54931641 177.30297852 C9.55819885 178.54874161 9.5670813 179.7945047 9.57623291 181.07801819 C8.87877779 186.20682666 6.85800363 189.95928127 3.03271484 193.55273438 C-2.80657688 195.66481862 -8.65964655 195.59493122 -14.34228516 193.11523438 C-19.88719499 187.70556624 -21.14762402 182.86493624 -21.4059906 175.2911377 C-21.44159769 172.30032405 -21.42601864 169.31119941 -21.40649414 166.3203125 C-21.41028123 164.6671045 -21.41578447 163.01389968 -21.42286682 161.36070251 C-21.43678796 156.88750538 -21.42567524 152.41469434 -21.40915561 147.94151878 C-21.3952672 143.251415 -21.4017695 138.56133277 -21.4052887 133.87121582 C-21.40798782 125.99627489 -21.39454081 118.12148663 -21.37133789 110.24658203 C-21.34473004 101.15335774 -21.34298218 92.06038865 -21.35472625 82.96713877 C-21.36552059 74.2052272 -21.35930397 65.44340758 -21.34517097 56.6815033 C-21.33942553 52.95920121 -21.33948249 49.23696673 -21.34423637 45.5146637 C-21.34902292 41.12819643 -21.33883525 36.74200716 -21.31728172 32.35559273 C-21.31173648 30.74962362 -21.31122768 29.14362766 -21.31623459 27.53765678 C-21.36527702 9.54554078 -21.36527702 9.54554078 -16.53192234 4.0559845 C-11.55025352 -0.2216684 -6.30374386 -0.0831996 0 0 Z " fill="#22AEFC" transform="translate(373.90478515625,168.384765625)"></path>
  <path d="M0 0 C7.58981149 5.2179954 12.83600229 13.32725789 18.35546875 20.59375 C21.0763226 24.17408853 23.84475674 27.71566997 26.625 31.25 C27.08213379 31.83257568 27.53926758 32.41515137 28.01025391 33.01538086 C31.49542215 37.44780958 35.04539308 41.82485956 38.63671875 46.171875 C40 48.0625 40 48.0625 40 50.0625 C44.16817045 46.11652982 47.57062368 41.84327952 51 37.25 C56.53030627 29.92741331 62.228939 22.76864727 68.0546875 15.6796875 C70.5893421 12.59042517 73.01485725 9.42799144 75.4375 6.25 C78.76920284 2.11145472 81.51914675 -0.3971256 86.9375 -1.23828125 C92.0682573 -1.57838827 94.99017003 -0.29456696 99 3.0625 C101.82735109 6.1725862 102.43163898 8.2527352 102.4375 12.4375 C102.45683594 13.35273438 102.47617187 14.26796875 102.49609375 15.2109375 C101.33895918 21.86218347 95.54058269 27.18539954 91.3125 32.25 C90.05455814 33.76681981 88.79674556 35.28374685 87.5390625 36.80078125 C86.93094727 37.53248535 86.32283203 38.26418945 85.69628906 39.01806641 C82.80700729 42.50034124 79.9474641 46.00661461 77.0859375 49.51171875 C75.61597133 51.30926165 74.1415979 53.10320489 72.6640625 54.89453125 C68.30384418 60.18908207 64.0604334 65.53476149 60 71.0625 C64.10747164 76.64286704 68.38483669 82.04612004 72.8125 87.375 C74.05221335 88.87359037 75.29179677 90.37228823 76.53125 91.87109375 C77.12679687 92.59022949 77.72234375 93.30936523 78.3359375 94.05029297 C81.21055504 97.52631963 84.06408449 101.01936945 86.9140625 104.515625 C88.37901275 106.30429084 89.85387346 108.08486354 91.3359375 109.859375 C93.58938194 112.56949755 95.8012642 115.30790403 98 118.0625 C98.62648438 118.81144531 99.25296875 119.56039062 99.8984375 120.33203125 C103.87938078 125.51847144 104.87774297 129.77695969 104.51953125 136.31640625 C103.69696477 140.66425763 102.41728546 142.23952505 99 145.0625 C94.11685635 147.61505236 89.2049363 147.67291619 84 146.0625 C76.86642054 141.87691049 72.16972387 134.34409392 67.32080078 127.82275391 C65.13424976 124.90869978 62.88065743 122.04819581 60.625 119.1875 C60.17600342 118.61725098 59.72700684 118.04700195 59.2644043 117.45947266 C57.84488923 115.65892853 56.42297332 113.86031221 55 112.0625 C54.46987305 111.3926709 53.93974609 110.7228418 53.39355469 110.03271484 C51.76501747 107.97802285 50.13315648 105.92602168 48.5 103.875 C47.99549316 103.23900879 47.49098633 102.60301758 46.97119141 101.94775391 C44.76032915 99.17911562 42.53692061 96.53433586 40 94.0625 C32.36534592 103.40857892 24.79739343 112.79857899 17.36914062 122.30957031 C14.95795304 125.39664714 12.54200569 128.47997765 10.125 131.5625 C9.68462402 132.12598145 9.24424805 132.68946289 8.79052734 133.27001953 C7.53383622 134.87305416 6.26879405 136.46903305 5 138.0625 C4.56631104 138.61365479 4.13262207 139.16480957 3.68579102 139.73266602 C0.45773229 143.74574785 -1.98803801 145.61837536 -7 147.0625 C-11.92004815 147.2030728 -16.12391483 146.16336814 -20 143.0625 C-23.36135362 139.2375114 -23.38029615 135.53137512 -23.49609375 130.66015625 C-22.27723186 124.27792669 -16.64195177 119.06854405 -12.5625 114.1875 C-11.30422901 112.6709532 -10.04642717 111.15401706 -8.7890625 109.63671875 C-8.15516602 108.87278809 -7.52126953 108.10885742 -6.86816406 107.32177734 C-4.03712206 103.8980368 -1.23537742 100.4508583 1.5625 97 C2.08473145 96.35627441 2.60696289 95.71254883 3.14501953 95.04931641 C4.20817581 93.73858026 5.27116298 92.42770693 6.33398438 91.11669922 C9.32416289 87.42980561 12.31863681 83.74640162 15.3125 80.0625 C16.41277799 78.70834761 17.51304011 77.35418233 18.61328125 76 C19.40089844 75.030625 20.18851563 74.06125 21 73.0625 C19.5419996 68.52929187 16.97790266 65.38477195 13.875 61.875 C12.87393625 60.71836774 11.87394387 59.56080738 10.875 58.40234375 C10.38386719 57.83499512 9.89273438 57.26764648 9.38671875 56.68310547 C6.82566819 53.69010308 4.39565322 50.59438905 1.94921875 47.5078125 C-0.11267775 44.92114475 -2.2095186 42.36585441 -4.3125 39.8125 C-7.9071614 35.42111609 -11.47053714 31.00637019 -15 26.5625 C-15.48122314 25.96276367 -15.96244629 25.36302734 -16.45825195 24.74511719 C-20.51629614 19.60946364 -21.69193842 15.58649078 -21 9.0625 C-19.42299677 4.88344145 -17.86067171 2.35477383 -14 0.0625 C-9.15355476 -1.55298175 -4.81653531 -1.50516728 0 0 Z " fill="#22AEFC" transform="translate(742,215.9375)"></path>
  <path d="M0 0 C5.13308791 2.61320839 8.1797908 5.53937241 10 11 C10.10073327 13.26454217 10.13940812 15.53198361 10.14717102 17.79875183 C10.15084771 18.49395803 10.1545244 19.18916423 10.1583125 19.90543729 C10.16934669 22.2405952 10.17319274 24.5757086 10.17700195 26.91088867 C10.18326686 28.58306011 10.18991368 30.25523016 10.19691467 31.92739868 C10.21795599 37.42424551 10.22831778 42.92109261 10.23828125 48.41796875 C10.24232891 50.31072822 10.24644584 52.20348755 10.25063133 54.09624672 C10.26968391 62.98948784 10.28391426 71.88272066 10.2922433 80.77597827 C10.3020135 91.03842754 10.32832706 101.300661 10.36874419 111.56303424 C10.39891736 119.49691391 10.41371336 127.43073178 10.41702431 135.36466771 C10.41937363 140.1023267 10.42831847 144.83975514 10.45348549 149.57735252 C10.47679193 154.03680455 10.48098914 158.49587467 10.47072411 162.95537186 C10.47022924 164.58877267 10.47653509 166.22219245 10.49028015 167.85553551 C10.61219062 183.20586468 10.61219062 183.20586468 6 190 C3.04726722 192.73775866 -0.2912681 193.83264997 -4.2734375 194.22265625 C-9.45460893 194.00161651 -12.69716902 192.29225724 -16.58984375 188.9609375 C-19.99846606 184.22096963 -20.25113363 178.53033445 -20.26069641 172.87208557 C-20.26452196 172.18979588 -20.26834751 171.50750619 -20.27228898 170.80454105 C-20.2825402 168.53701288 -20.27864201 166.26974166 -20.2746582 164.00219727 C-20.27900903 162.36884326 -20.28419341 160.73549129 -20.29014587 159.10214233 C-20.30350666 154.67858395 -20.30411785 150.25511116 -20.30158257 145.83153653 C-20.30051097 142.13376396 -20.30540102 138.43600858 -20.310188 134.73823971 C-20.32127288 126.01257309 -20.32172619 117.28694954 -20.31567383 108.5612793 C-20.30963285 99.56977003 -20.32195053 90.5784172 -20.3432439 81.58693463 C-20.36087479 73.856786 -20.36685894 66.12668711 -20.36360615 58.39651912 C-20.36179568 53.78417036 -20.36440604 49.17193323 -20.37832069 44.55960274 C-20.39091881 40.2216024 -20.38893623 35.88384555 -20.37590981 31.54584885 C-20.37354887 29.95760833 -20.37626137 28.36935057 -20.38453293 26.78112984 C-20.45766843 11.64204326 -20.45766843 11.64204326 -17 5 C-11.62650792 -0.11137051 -7.23811142 -0.8116469 0 0 Z " fill="#22AEFC" transform="translate(529,169)"></path>
</svg>
